<svg width="291" height="275" viewBox="0 0 291 275" fill="none" xmlns="http://www.w3.org/2000/svg">
<path d="M22.6212 178.797L103.612 258.267L220.114 238.812L272.067 100.615L108.006 21.0604L100.26 40.1782L121.062 68.9001L105.332 81.7776L121.062 103.901L108.006 130.258L87.1362 139.664L83.4746 161.361L65.9998 178.797L36.2437 167.349L22.6212 178.797Z" fill="currentColor" fill-opacity="0.844105" stroke="currentColor" stroke-opacity="0.838942" stroke-width="30"/>
<path d="M22.6212 178.797L103.612 258.267L220.114 238.812L272.067 100.615L108.006 21.0604L100.26 40.1782L121.062 68.9001L105.332 81.7776L121.062 103.901L108.006 130.258L87.1362 139.664L83.4746 161.361L65.9998 178.797L36.2437 167.349L22.6212 178.797Z" stroke="currentColor" stroke-width="20"/>
</svg>
